<?xml version="1.0" standalone="no"?>
<!DOCTYPE svg PUBLIC "-//W3C//DTD SVG 20010904//EN"
 "http://www.w3.org/TR/2001/REC-SVG-20010904/DTD/svg10.dtd">
<svg version="1.0" xmlns="http://www.w3.org/2000/svg"
 width="260.000000pt" height="260.000000pt" viewBox="0 0 260.000000 260.000000"
 preserveAspectRatio="xMidYMid meet">
<metadata>
Created by potrace 1.14, written by Peter Selinger 2001-2017
</metadata>
<g transform="translate(0.000000,260.000000) scale(0.100000,-0.100000)"
fill="#000000" stroke="none">
<path d="M2483 2583 c0 -7 3 -10 6 -9 3 2 7 -7 7 -20 2 -24 1 -24 -13 -7 -14
17 -14 17 -9 -1 5 -15 2 -17 -14 -13 -20 5 -20 4 -7 -17 13 -19 13 -24 -4 -44
-17 -21 -18 -21 -16 -3 0 11 4 18 8 15 4 -2 10 0 14 6 5 9 0 10 -32 10 -5 0
-8 -11 -7 -24 1 -22 -1 -23 -24 -15 -20 8 -23 7 -15 -3 13 -17 13 -49 0 -41
-6 4 -8 0 -5 -9 5 -12 0 -15 -21 -13 -21 2 -28 -2 -27 -14 0 -9 -5 -15 -11
-14 -7 2 -13 -4 -13 -12 0 -9 6 -12 18 -9 13 5 14 4 3 -4 -7 -5 -17 -15 -21
-22 -5 -8 -9 -7 -13 5 -4 9 -3 13 3 10 16 -10 12 1 -6 15 -12 11 -15 11 -12 0
2 -8 -3 -15 -9 -16 -7 -1 -18 -2 -24 -3 -5 0 -7 -6 -3 -12 3 -6 9 -7 13 -3 3
5 13 10 21 12 8 2 12 0 8 -4 -4 -4 -2 -14 5 -23 11 -14 10 -14 -6 -2 -14 11
-21 11 -29 3 -14 -14 -32 -16 -23 -3 3 5 0 13 -7 17 -7 4 -10 4 -6 -1 4 -4 -1
-15 -10 -24 -10 -9 -13 -13 -8 -8 12 9 32 10 23 0 -4 -3 -2 -12 5 -20 8 -11 7
-12 -6 -7 -11 4 -22 0 -31 -12 -22 -28 -17 -42 5 -16 17 21 19 21 17 3 0 -11
-6 -19 -11 -18 -6 1 -10 -3 -11 -10 0 -6 -4 -15 -8 -20 -5 -4 -7 -1 -5 7 2 9
-3 14 -11 12 -8 -2 -18 3 -22 10 -7 11 -9 11 -9 0 0 -7 -5 -10 -12 -6 -7 4 -8
3 -4 -5 4 -6 12 -9 17 -6 5 3 6 -1 2 -10 -4 -11 -14 -15 -29 -12 -14 2 -21 0
-18 -8 3 -7 -11 -24 -31 -39 -28 -22 -33 -31 -26 -45 10 -18 9 -19 -42 -24
-13 -1 -24 -7 -24 -14 0 -7 4 -10 9 -7 4 3 16 0 25 -5 16 -9 15 -10 -7 -8 -16
1 -24 -3 -22 -11 1 -6 -4 -11 -10 -10 -7 2 -12 -3 -10 -10 1 -8 -2 -11 -9 -6
-9 5 -10 2 -6 -9 4 -11 2 -14 -9 -10 -13 5 -13 8 1 23 13 14 13 17 0 17 -8 0
-12 -4 -9 -8 2 -4 0 -10 -6 -14 -6 -4 -8 -10 -5 -15 6 -10 -29 -32 -38 -24 -3
3 -3 -4 0 -15 7 -29 -22 -60 -53 -56 -13 1 -24 -2 -24 -7 0 -5 -4 -7 -9 -4
-15 10 -6 -25 10 -35 10 -7 8 -8 -11 -7 -17 2 -25 -3 -28 -17 -2 -11 -9 -24
-14 -30 -8 -7 -9 -5 -5 6 3 9 1 22 -4 30 -7 12 -9 12 -10 -1 -1 -8 -1 -19 0
-24 1 -5 -6 -6 -16 -2 -14 5 -13 2 4 -13 19 -16 20 -20 7 -25 -8 -3 -12 -2 -9
4 3 6 3 10 -2 11 -4 0 -16 2 -25 4 -10 2 -21 -2 -25 -7 -4 -7 -1 -8 7 -3 8 5
11 3 8 -6 -3 -8 -10 -14 -16 -14 -7 0 -12 -4 -13 -10 0 -5 -7 -13 -14 -18 -8
-4 -11 -15 -8 -24 4 -10 2 -14 -5 -9 -6 3 -14 1 -18 -5 -4 -8 -3 -9 4 -5 7 4
12 2 12 -5 0 -10 3 -10 12 -1 7 7 16 12 22 12 5 0 1 -6 -9 -14 -11 -8 -25 -12
-32 -9 -7 3 -19 0 -27 -6 -7 -6 -16 -8 -19 -4 -4 3 -7 1 -7 -5 0 -6 8 -16 18
-21 9 -6 12 -11 5 -11 -6 0 -18 7 -26 15 -13 13 -16 13 -21 -1 -3 -8 -11 -12
-17 -8 -8 5 -8 1 0 -13 6 -11 7 -23 3 -27 -3 -4 0 -11 8 -16 9 -5 1 -7 -22 -5
-32 3 -35 1 -30 -18 5 -20 6 -20 12 -2 6 18 7 18 12 -2 4 -15 1 -20 -11 -18
-9 1 -20 -3 -24 -9 -6 -7 -7 -5 -4 5 7 21 -8 46 -17 30 -4 -6 -1 -11 6 -11 17
-1 -23 -24 -41 -25 -8 0 -15 -8 -17 -17 -1 -10 2 -16 8 -15 14 3 19 -31 6 -40
-7 -3 -8 -1 -4 5 3 6 -2 16 -13 22 -12 6 -18 16 -15 25 4 8 2 15 -3 15 -5 0
-9 -11 -9 -24 0 -14 3 -23 7 -20 4 2 10 0 14 -6 3 -5 -1 -10 -10 -10 -9 0 -13
-5 -10 -10 4 -6 10 -8 15 -5 5 3 11 1 14 -4 3 -5 -7 -7 -23 -6 -27 2 -28 1
-18 -16 7 -11 16 -19 21 -19 4 0 2 8 -5 18 -12 15 -12 16 2 5 9 -7 19 -10 22
-6 4 3 7 1 7 -4 0 -6 -6 -13 -12 -16 -9 -3 -7 -9 7 -20 19 -15 19 -15 1 -14
-20 2 -31 -29 -14 -40 7 -3 8 -1 4 5 -4 7 -2 12 3 12 14 0 14 -13 -1 -28 -9
-9 -9 -12 1 -12 6 0 1 -11 -13 -23 -14 -13 -22 -28 -18 -32 4 -4 -3 -1 -15 6
-13 8 -23 17 -23 21 0 5 -5 8 -11 8 -8 0 -8 -5 1 -15 10 -12 9 -16 -4 -21 -10
-4 -15 -13 -12 -23 5 -13 3 -12 -8 2 -8 10 -16 14 -18 10 -6 -10 -2 4 7 32 6
19 6 19 -5 2 -11 -18 -12 -18 -32 0 -21 18 -21 18 -4 -9 12 -18 14 -28 6 -33
-7 -4 -14 2 -17 14 -3 12 -10 21 -15 21 -5 0 -6 -4 -3 -10 3 -6 -1 -7 -10 -4
-11 5 -14 2 -9 -12 5 -16 4 -16 -5 -4 -10 13 -12 13 -21 0 -7 -11 -10 -11 -10
-2 0 10 -10 12 -37 7 -37 -5 -43 2 -7 9 11 3 28 8 38 12 14 5 17 4 11 -5 -6
-10 -3 -11 14 -1 18 9 20 14 10 26 -6 8 -14 14 -16 14 -3 0 0 -7 7 -15 10 -12
7 -14 -19 -10 -18 2 -31 -1 -31 -7 0 -6 -3 -8 -6 -5 -4 3 -16 1 -27 -4 -15 -8
-22 -8 -29 2 -6 10 -7 7 -3 -8 10 -35 -13 -28 -36 12 -12 19 -25 32 -30 29 -8
-4 -13 8 -11 27 1 3 -6 6 -14 7 -7 1 -21 3 -29 4 -8 1 -12 4 -10 8 3 4 17 6
32 4 l28 -4 -29 10 c-16 5 -33 7 -38 4 -4 -3 -5 2 -2 10 3 8 12 12 20 9 8 -3
14 0 14 7 0 6 -4 9 -9 5 -6 -3 -14 3 -20 12 -6 10 -11 13 -11 8 0 -6 -9 -11
-20 -11 -11 0 -18 5 -16 11 2 5 9 9 15 7 7 -1 10 2 6 8 -4 7 -12 7 -24 0 -10
-5 -21 -6 -25 -3 -3 3 -6 0 -6 -8 0 -12 -2 -12 -9 0 -5 8 -6 21 -3 30 5 14 4
14 -14 1 -18 -14 -18 -14 -4 5 8 11 22 26 30 33 8 8 10 11 3 8 -15 -8 -27 10
-13 19 8 5 8 11 0 20 -8 10 -6 17 10 28 l21 14 -21 6 c-13 3 -18 10 -14 21 3
9 2 16 -4 16 -12 0 -11 -18 2 -38 5 -8 3 -19 -3 -25 -9 -9 -11 -7 -6 8 7 20 6
20 -9 1 -9 -11 -16 -15 -16 -10 0 6 3 14 7 18 5 4 9 16 9 27 3 39 3 40 25 29
11 -7 23 -9 26 -7 2 3 -5 8 -16 12 -12 3 -21 11 -21 18 0 6 -6 3 -13 -7 -12
-16 -15 -16 -26 -3 -9 12 -9 17 0 23 7 4 9 3 5 -4 -3 -6 -2 -13 4 -17 5 -3 10
0 10 9 0 8 3 16 8 19 4 2 2 2 -5 1 -16 -4 -26 13 -13 19 6 3 5 4 -2 2 -7 -1
-12 -8 -10 -14 3 -13 -8 -14 -27 -2 -9 6 -22 6 -34 -1 -13 -7 -17 -7 -13 0 3
6 0 13 -6 15 -7 3 1 4 19 2 24 -3 30 0 27 10 -4 9 -18 13 -42 10 -21 -2 -32
-1 -25 1 7 3 9 12 6 20 -3 7 -9 12 -13 9 -4 -3 -10 2 -13 10 -5 12 -2 12 18 3
13 -6 23 -14 22 -17 -1 -3 2 -8 7 -11 5 -3 10 3 12 13 1 9 -1 15 -5 12 -13 -8
-52 26 -44 38 4 7 0 6 -10 -2 -15 -12 -17 -11 -17 3 0 9 4 16 8 16 5 0 9 7 9
15 0 21 -2 20 -27 -17 -20 -30 -21 -25 -4 17 3 8 1 15 -6 15 -6 0 -8 6 -4 13
4 6 4 9 -1 5 -11 -10 -47 11 -40 23 4 5 1 8 -7 7 -8 -2 -12 5 -10 17 2 16 1
17 -7 5 -5 -8 -8 -17 -6 -20 2 -4 -2 -7 -10 -7 -8 0 -15 4 -15 9 0 4 5 8 10 8
6 0 10 5 10 11 0 6 -6 9 -13 6 -8 -3 -20 -1 -28 5 -11 8 -10 9 4 4 25 -8 21 1
-15 33 -21 18 -37 26 -44 21 -7 -6 -9 0 -8 19 1 16 -3 28 -10 28 -7 0 -13 -10
-14 -21 -1 -17 1 -18 9 -6 8 12 10 12 7 1 -2 -8 -12 -15 -21 -17 -12 -2 -15 2
-9 12 14 24 2 73 -19 79 -10 4 -19 14 -19 23 -1 13 -4 11 -13 -6 l-13 -23 -19
21 c-10 11 -24 19 -31 16 -9 -3 -11 1 -7 11 4 11 3 14 -6 9 -6 -4 -11 -4 -10
1 1 4 1 14 0 22 -1 11 -4 11 -19 0 -15 -13 -16 -12 -3 4 7 9 10 17 7 17 -4 0
-2 9 4 20 7 14 8 26 1 38 -8 13 -10 13 -11 3 0 -12 -3 -11 -12 2 -12 16 -13
15 -15 -9 0 -16 2 -22 7 -15 5 10 9 9 13 -3 3 -8 2 -18 -2 -21 -11 -6 -33 19
-29 35 2 7 -3 15 -11 18 -8 3 -11 0 -7 -7 5 -7 1 -9 -8 -5 -9 3 -16 14 -16 23
0 14 2 14 10 1 6 -9 10 -10 10 -3 0 22 -19 24 -32 3 -12 -19 -29 -28 -27 -12
3 17 -2 32 -10 32 -5 0 -7 -10 -4 -22 4 -20 3 -21 -7 -5 -14 22 -27 22 -35 -3
-5 -16 -9 -18 -25 -8 -10 7 -16 16 -13 22 4 5 1 6 -6 2 -9 -6 -9 -12 3 -25 19
-20 20 -31 5 -31 -5 0 -7 5 -4 10 3 6 2 10 -3 10 -5 0 -9 -98 -9 -224 1 -157
4 -223 11 -219 6 3 5 0 -1 -8 -17 -17 -17 -43 -1 -33 10 6 10 4 2 -7 -16 -21
-18 -82 -2 -73 10 6 11 4 1 -7 -17 -17 -17 -43 0 -33 9 6 9 4 1 -7 -16 -21
-18 -82 -2 -73 10 6 11 4 1 -7 -17 -17 -17 -43 0 -33 9 6 9 4 1 -7 -16 -21
-18 -82 -2 -73 10 6 11 4 1 -7 -17 -17 -17 -43 -1 -33 10 6 10 4 2 -7 -16 -21
-18 -82 -2 -73 10 6 11 4 1 -7 -17 -17 -17 -43 -1 -33 10 6 10 4 2 -7 -16 -21
-18 -82 -2 -73 10 6 11 4 1 -7 -17 -17 -17 -43 0 -33 9 6 9 4 1 -7 -16 -21
-18 -82 -2 -73 10 6 11 4 1 -7 -17 -17 -17 -43 -1 -33 10 6 10 4 2 -7 -16 -21
-18 -82 -2 -73 10 6 11 4 1 -7 -7 -7 -13 -19 -13 -27 0 -8 5 -10 13 -6 9 6 9
4 1 -7 -16 -21 -18 -82 -2 -73 10 6 11 4 1 -7 -7 -7 -13 -19 -13 -27 0 -8 5
-10 13 -6 9 6 9 4 1 -7 -16 -21 -18 -82 -2 -73 10 6 11 4 1 -7 -7 -7 -13 -19
-13 -27 0 -8 5 -10 13 -6 9 6 9 4 1 -7 -16 -21 -18 -82 -2 -73 10 6 11 4 1 -7
-17 -17 -17 -43 -1 -33 10 6 10 4 2 -7 -16 -21 -18 -82 -2 -73 10 6 11 4 0 -7
-16 -17 -16 -43 0 -33 10 6 10 4 2 -7 -16 -21 -18 -82 -2 -73 9 6 9 3 -1 -9
-11 -14 -11 -20 0 -34 9 -11 10 -14 2 -9 -10 5 -12 -20 -11 -112 l2 -119 381
1 c209 1 386 5 394 10 9 6 12 5 8 -1 -4 -7 291 -10 901 -9 l907 1 0 115 c0 90
-3 114 -13 112 -8 -1 -11 2 -7 8 3 6 11 8 16 5 5 -4 9 3 9 15 0 14 -4 19 -12
14 -10 -6 -10 -4 -2 7 16 21 13 155 -4 151 -8 -1 -11 2 -7 8 3 6 10 8 14 5 5
-2 8 22 9 55 0 43 -3 58 -11 53 -9 -5 -9 -3 -1 8 16 22 19 83 3 74 -9 -6 -10
-4 -3 6 13 21 13 69 0 69 -8 0 -8 2 0 8 17 11 13 158 -4 154 -8 -1 -11 2 -7 8
3 6 11 8 16 4 13 -8 8 57 -5 75 -8 11 -8 13 2 7 8 -5 12 0 12 14 0 14 -4 19
-12 14 -10 -6 -10 -4 -2 7 5 8 11 29 13 48 2 26 0 31 -11 25 -10 -6 -11 -4 -2
7 5 8 11 29 13 48 2 26 0 31 -11 25 -10 -6 -11 -5 -2 7 16 21 13 155 -4 151
-8 -1 -11 2 -7 8 3 6 11 7 17 4 13 -8 8 56 -6 75 -8 11 -8 13 0 8 8 -4 11 12
12 53 0 43 -3 58 -11 53 -9 -5 -9 -3 -1 8 5 8 11 29 13 48 2 26 0 31 -11 25
-10 -6 -11 -5 -2 7 16 21 13 155 -4 151 -8 -1 -11 2 -7 8 3 6 11 8 16 4 7 -4
9 8 6 32 -2 24 -9 38 -16 36 -7 -1 -10 2 -6 8 3 6 10 8 14 5 5 -2 8 22 9 55 0
43 -3 58 -11 53 -9 -5 -9 -3 -1 8 16 22 19 83 3 74 -9 -6 -10 -4 -3 6 13 21
13 69 0 69 -8 0 -8 2 0 8 14 9 13 64 -1 74 -7 5 -6 8 1 8 6 0 11 18 12 41 1
29 -1 38 -11 33 -9 -5 -9 -4 1 7 14 16 16 43 2 34 -5 -3 -10 -1 -10 4 0 6 4
11 9 11 4 0 8 10 7 23 -1 12 -7 21 -15 19 -7 -1 -10 2 -6 8 3 6 10 8 15 5 4
-3 8 44 7 103 l-2 108 -56 0 c-36 -1 -56 -5 -56 -13z m42 -2 c3 -5 2 -12 -3
-15 -5 -3 -9 1 -9 9 0 17 3 19 12 6z m45 -1 c0 -5 -5 -10 -11 -10 -5 0 -7 5
-4 10 3 6 8 10 11 10 2 0 4 -4 4 -10z m-223 -222 c-3 -8 -6 -5 -6 6 -1 11 2
17 5 13 3 -3 4 -12 1 -19z m-2263 -184 c3 -8 2 -12 -4 -9 -6 3 -10 10 -10 16
0 14 7 11 14 -7z m2023 -29 c0 -8 -4 -15 -9 -15 -10 0 -11 14 -1 23 9 10 10 9
10 -8z m-22 -25 c3 -5 1 -10 -4 -10 -6 0 -11 5 -11 10 0 6 2 10 4 10 3 0 8 -4
11 -10z m-29 -19 c0 -11 -5 -17 -13 -14 -10 4 -11 9 -2 19 15 18 15 18 15 -5z
m-1676 -101 c0 -6 -5 -10 -11 -10 -5 0 -7 5 -4 10 3 6 -1 10 -9 10 -9 0 -16 5
-16 10 0 7 6 7 20 0 11 -6 20 -15 20 -20z m1551 -57 c13 -16 12 -17 -3 -4 -14
11 -18 11 -18 1 0 -8 -3 -11 -6 -7 -5 5 3 27 10 27 2 0 10 -8 17 -17z m-1458
-59 c-3 -8 -10 -11 -15 -8 -6 4 -6 9 2 14 9 5 9 9 1 14 -6 4 -15 4 -21 1 -6
-3 -7 1 -4 10 6 14 8 14 25 -1 10 -9 15 -22 12 -30z m1337 -28 c0 -2 -7 -7
-16 -10 -8 -3 -12 -2 -9 4 6 10 25 14 25 6z m-1228 -60 c3 2 10 -2 17 -9 9
-11 8 -17 -3 -26 -12 -10 -14 -8 -9 11 4 18 3 20 -6 8 -8 -11 -11 -12 -11 -2
0 7 -5 10 -10 7 -6 -4 -10 -3 -9 2 4 23 -3 31 -23 27 -21 -4 -22 -4 -3 5 15 7
24 5 36 -9 9 -11 19 -17 21 -14z m1199 9 c5 4 6 -1 2 -10 -5 -13 -7 -14 -14
-3 -5 7 -8 18 -8 23 0 6 3 4 6 -3 2 -6 9 -10 14 -7z m-98 -72 c-7 -2 -13 -9
-13 -14 0 -6 5 -7 12 -3 7 4 8 3 4 -4 -4 -6 -14 -8 -23 -5 -12 5 -14 3 -8 -7
5 -9 4 -11 -3 -6 -7 4 -12 2 -12 -4 0 -6 -5 -8 -11 -4 -8 5 -6 10 5 16 9 5 13
14 10 20 -4 6 -2 8 4 4 6 -3 13 -2 17 4 3 5 12 10 18 9 9 0 9 -2 0 -6z m-93
-103 c0 -5 -5 -10 -11 -10 -5 0 -7 5 -4 10 3 6 8 10 11 10 2 0 4 -4 4 -10z
m-45 -30 c3 -5 -1 -10 -10 -10 -9 0 -13 5 -10 10 3 6 8 10 10 10 2 0 7 -4 10
-10z m-116 -117 c-12 -15 -12 -16 6 -9 15 5 17 4 8 -5 -9 -9 -17 -7 -35 6 -14
11 -16 15 -6 12 10 -4 20 -2 23 3 4 6 9 10 12 10 3 0 -1 -8 -8 -17z m-617 -8
c0 -5 -5 -11 -11 -13 -6 -2 -11 4 -11 13 0 9 5 15 11 13 6 -2 11 -8 11 -13z
m-2 -35 c0 -5 -4 -10 -10 -10 -5 0 -10 5 -10 10 0 6 5 10 10 10 6 0 10 -4 10
-10z m95 -100 c-3 -5 -14 -10 -23 -9 -14 0 -13 2 3 9 27 11 27 11 20 0z m58
-85 c4 -8 3 -16 -1 -19 -4 -3 -9 4 -9 15 -2 23 3 25 10 4z m30 -18 c3 -8 -1
-14 -8 -14 -7 0 -11 6 -8 14 3 7 6 13 8 13 2 0 5 -6 8 -13z m397 -11 c0 -2 -7
-7 -16 -10 -8 -3 -12 -2 -9 4 6 10 25 14 25 6z m-50 -26 c8 -5 11 -10 5 -10
-5 0 -17 5 -25 10 -8 5 -10 10 -5 10 6 0 17 -5 25 -10z m-243 -16 c-3 -3 -12
-4 -19 -1 -8 3 -5 6 6 6 11 1 17 -2 13 -5z"/>
<path d="M2352 2441 c2 -7 7 -12 11 -12 12 1 9 15 -3 20 -7 2 -11 -2 -8 -8z"/>
<path d="M2330 2416 c0 -2 7 -7 16 -10 8 -3 12 -2 9 4 -6 10 -25 14 -25 6z"/>
<path d="M176 2217 c3 -10 9 -15 12 -12 3 3 0 11 -7 18 -10 9 -11 8 -5 -6z"/>
<path d="M36 2207 c3 -10 9 -15 12 -12 3 3 0 11 -7 18 -10 9 -11 8 -5 -6z"/>
<path d="M246 2131 c-4 -5 -2 -12 3 -15 5 -4 12 -2 15 3 4 5 2 12 -3 15 -5 4
-12 2 -15 -3z"/>
<path d="M267 2103 c-8 -7 41 -63 54 -63 13 0 6 39 -8 44 -8 3 -10 -1 -6 -12
5 -14 2 -13 -14 3 -14 13 -16 22 -9 27 8 5 8 8 0 8 -6 0 -14 -3 -17 -7z"/>
<path d="M1940 2019 c0 -5 5 -7 10 -4 6 3 10 8 10 11 0 2 -4 4 -10 4 -5 0 -10
-5 -10 -11z"/>
<path d="M482 1924 c10 -10 20 -16 22 -13 3 3 -5 11 -17 18 -21 13 -21 12 -5
-5z"/>
<path d="M1836 1931 c-4 -6 -3 -11 3 -11 6 0 8 -7 4 -16 -5 -14 -8 -13 -18 7
l-12 22 0 -25 c0 -28 23 -32 37 -7 10 18 -4 47 -14 30z"/>
<path d="M670 1739 c0 -5 5 -7 10 -4 6 3 10 8 10 11 0 2 -4 4 -10 4 -5 0 -10
-5 -10 -11z"/>
<path d="M1493 1575 c0 -8 4 -12 9 -9 5 3 6 10 3 15 -9 13 -12 11 -12 -6z"/>
<path d="M827 1401 c-3 -13 0 -18 7 -15 7 3 13 11 13 19 0 22 -14 18 -20 -4z"/>
<path d="M1342 1320 c0 -14 2 -19 5 -12 2 6 2 18 0 25 -3 6 -5 1 -5 -13z"/>
<path d="M1335 1269 c-20 -20 -20 -20 0 -13 18 7 19 6 5 -12 -14 -18 -14 -18
6 -1 11 9 21 24 21 32 0 20 -8 18 -32 -6z"/>
<path d="M1018 1235 c2 -14 8 -27 12 -30 4 -2 5 7 2 20 -2 14 -8 27 -12 30 -4
2 -5 -7 -2 -20z"/>
</g>
</svg>
